<?xml version="1.0" standalone="no"?>
<!DOCTYPE svg PUBLIC "-//W3C//DTD SVG 20010904//EN"
 "http://www.w3.org/TR/2001/REC-SVG-20010904/DTD/svg10.dtd">
<svg version="1.0" xmlns="http://www.w3.org/2000/svg"
 width="512.000000pt" height="512.000000pt" viewBox="0 0 512.000000 512.000000"
 preserveAspectRatio="xMidYMid meet">

<g transform="translate(0.000000,512.000000) scale(0.100000,-0.100000)"
fill="#000000" stroke="none">
<path d="M238 4892 c-30 -18 -58 -67 -58 -102 0 -34 28 -79 63 -100 29 -18 51
-20 250 -20 119 0 217 -2 217 -4 0 -2 29 -126 65 -276 36 -150 65 -274 65
-276 0 -2 -167 -4 -371 -4 -416 0 -423 -1 -454 -67 -23 -48 -14 -99 25 -138
l30 -30 2388 -5 2388 -5 -196 -806 c-134 -549 -203 -817 -219 -842 -12 -21
-40 -44 -65 -56 -42 -21 -46 -21 -1538 -21 -960 0 -1515 -4 -1549 -10 -186
-35 -339 -194 -370 -386 -37 -232 121 -466 351 -518 38 -9 84 -16 102 -16 32
0 32 -1 -29 -40 -283 -185 -324 -567 -88 -806 204 -207 524 -206 731 0 110
109 154 215 154 366 0 50 -7 109 -16 141 -37 127 -129 247 -237 309 l-52 30
1140 0 1140 0 -50 -29 c-68 -39 -157 -130 -193 -199 -45 -85 -62 -155 -62
-253 0 -106 24 -191 78 -275 184 -283 565 -328 803 -94 240 236 200 627 -84
811 l-57 37 101 4 101 3 34 37 c25 28 34 47 34 73 0 44 -23 90 -53 107 -17 10
-369 14 -1737 18 -1650 5 -1716 6 -1750 24 -84 44 -124 110 -124 201 0 96 44
163 134 204 45 20 57 21 1556 21 1652 0 1559 -3 1661 57 62 36 146 132 171
194 24 60 452 1809 452 1847 0 33 -27 76 -60 96 -26 15 -192 16 -1999 16
l-1970 0 -10 38 c-6 20 -44 181 -86 357 -42 175 -83 332 -91 347 -29 55 -46
58 -356 58 -249 0 -286 -3 -310 -18z m1502 -3913 c99 -50 148 -131 149 -249 2
-149 -105 -266 -255 -278 -90 -7 -155 18 -220 83 -123 123 -109 314 31 421 84
64 195 72 295 23z m2706 3 c55 -28 119 -102 138 -159 36 -105 11 -209 -69
-289 -177 -178 -475 -55 -475 196 1 113 53 200 152 250 58 29 69 31 138 27 50
-2 89 -11 116 -25z"/>
<path d="M785 3428 c-36 -28 -56 -78 -49 -118 9 -40 54 -86 95 -94 17 -3 362
-6 766 -6 809 0 784 -2 823 62 24 40 25 69 4 114 -32 67 7 64 -842 64 l-769 0
-28 -22z"/>
<path d="M163 2789 c-65 -19 -98 -99 -68 -163 33 -69 -9 -66 841 -66 l766 0
34 34 c29 29 34 41 34 79 0 30 -7 53 -22 72 -44 56 -25 55 -820 54 -415 0
-747 -5 -765 -10z"/>
</g>
</svg>
